<svg width="134" height="24" viewBox="0 0 134 24" fill="none" xmlns="http://www.w3.org/2000/svg">
<path fill-rule="evenodd" clip-rule="evenodd" d="M0.486222 11.4839C0.485394 11.4855 0.484152 11.4872 0.48291 11.4888L0.488291 11.4851L0.486222 11.4839ZM0.486222 11.4839C0.485394 11.4855 0.484152 11.4872 0.48291 11.4888L0.488291 11.4851L0.486222 11.4839ZM42.3378 18.7512C43.2143 18.5528 44.0997 18.256 45.0292 17.8264C45.443 17.6288 45.6355 17.6944 45.6058 18.0576L45.2786 21.9864C45.2505 22.316 45.0661 22.5472 44.7212 22.7128C42.7636 23.5712 40.6095 24 38.3263 24C34.9179 24 32.1351 22.8448 29.9136 20.5008C27.7266 18.1568 26.769 15.3504 27.0465 12.0168C27.3248 8.6824 28.7499 5.876 31.3275 3.532C33.9387 1.1888 36.9172 0 40.3264 0C42.6425 0 44.6891 0.4624 46.4623 1.4192C46.9371 1.684 46.9587 1.816 46.9178 2.3112L46.601 6.1072C46.5625 6.5696 46.3228 6.6688 45.9146 6.4048C44.5023 5.48 42.4893 5.0176 39.9078 5.0176C37.955 5.0176 36.2428 5.7112 34.7727 7.0648C33.3035 8.4184 32.4711 10.0688 32.3091 12.0168C32.1463 13.964 32.7037 15.6152 33.9475 16.968C35.1922 18.3216 36.7889 19.0152 38.7417 19.0152C40.2967 19.0152 41.4965 18.916 42.3378 18.7512ZM55.7683 23.7688C53.3856 23.7688 51.3967 23.4056 49.7727 22.6464C49.549 22.5472 49.4335 22.3496 49.4583 22.052L49.824 17.6616C49.8457 17.3976 49.9836 17.3312 50.2707 17.4632C51.8041 18.52 53.3487 19.048 54.9703 19.048C57.7499 19.048 59.2063 18.256 59.3354 16.704C59.4012 15.912 59.1197 15.3176 58.3338 14.8224C57.9256 14.5584 57.5783 14.3608 57.2607 14.1952C56.9768 14.0304 56.4973 13.832 55.8236 13.568L54.3841 12.9736C51.8057 11.7528 50.2635 10.0024 50.5715 6.3056C50.8987 2.3768 54.0753 0 58.6754 0C61.1238 0 62.9467 0.3632 64.1802 1.0568C64.4007 1.1888 64.5138 1.4192 64.4865 1.7496L64.1345 5.9752C64.1152 6.2064 63.8449 6.272 63.6902 6.14C62.5514 5.1168 61.1367 4.6216 59.4485 4.6216C57.2639 4.6216 56.1171 5.2824 56.0073 6.6024C55.9551 7.2296 56.1203 7.6256 56.7411 8.1208L57.4941 8.616C57.6842 8.7152 58.0643 8.9136 58.6714 9.1776C59.2809 9.4088 59.6643 9.5736 59.8222 9.6728C61.3773 10.4648 62.1359 10.8944 63.2362 11.9832C64.3398 13.04 64.776 14.5584 64.6084 16.572C64.1489 22.0856 60.0043 23.7688 55.7683 23.7688ZM73.4117 23.7688C71.029 23.7688 69.0401 23.4056 67.4161 22.6464C67.1924 22.5472 67.0769 22.3496 67.1018 22.052L67.4675 17.6616C67.4891 17.3976 67.627 17.3312 67.9142 17.4632C69.4475 18.52 70.9921 19.048 72.6137 19.048C75.3934 19.048 76.8497 18.256 76.9789 16.704C77.0446 15.912 76.7631 15.3176 75.9772 14.8224C75.569 14.5584 75.2217 14.3608 74.9042 14.1952C74.6203 14.0304 74.1407 13.832 73.467 13.568L72.0275 12.9736C69.4491 11.7528 67.9069 10.0024 68.2149 6.3056C68.5421 2.3768 71.7187 0 76.3188 0C78.7673 0 80.5901 0.3632 81.8236 1.0568C82.0441 1.1888 82.1572 1.4192 82.1299 1.7496L81.7779 5.9752C81.7586 6.2064 81.4883 6.272 81.3336 6.14C80.1948 5.1168 78.7801 4.6216 77.0919 4.6216C74.9074 4.6216 73.7605 5.2824 73.6507 6.6024C73.5985 7.2296 73.7637 7.6256 74.3845 8.1208L75.1375 8.616C75.3276 8.7152 75.7085 8.9136 76.3148 9.1776C76.9243 9.4088 77.3077 9.5736 77.4657 9.6728C79.0207 10.4648 79.7793 10.8944 80.8797 11.9832C81.9832 13.04 82.4194 14.5584 82.2518 16.572C81.7923 22.0856 77.6477 23.7688 73.4117 23.7688ZM86.9006 23.1088C86.3713 23.1088 86.3135 23.0096 86.3576 22.4816L88.1837 0.5616C88.2246 0.0664 88.2968 0 88.7932 0H93.095C93.4591 0 93.6139 0.132 93.589 0.4288L91.7461 22.548C91.71 22.9768 91.6001 23.1088 91.1695 23.1088H86.9006ZM102.283 23.7688C99.9 23.7688 97.9112 23.4056 96.2872 22.6464C96.0634 22.5472 95.9479 22.3496 95.9728 22.052L96.3385 17.6616C96.3601 17.3976 96.4981 17.3312 96.7852 17.4632C98.3186 18.52 99.8632 19.048 101.485 19.048C104.264 19.048 105.721 18.256 105.85 16.704C105.916 15.912 105.634 15.3176 104.848 14.8224C104.44 14.5584 104.093 14.3608 103.775 14.1952C103.491 14.0304 103.012 13.832 102.338 13.568L100.899 12.9736C98.3202 11.7528 96.778 10.0024 97.0859 6.3056C97.4131 2.3768 100.59 0 105.19 0C107.638 0 109.461 0.3632 110.695 1.0568C110.915 1.1888 111.028 1.4192 111.001 1.7496L110.649 5.9752C110.63 6.2064 110.359 6.272 110.205 6.14C109.066 5.1168 107.651 4.6216 105.963 4.6216C103.778 4.6216 102.632 5.2824 102.522 6.6024C102.47 7.2296 102.635 7.6256 103.256 8.1208L104.009 8.616C104.199 8.7152 104.58 8.9136 105.186 9.1776C105.795 9.4088 106.179 9.5736 106.337 9.6728C107.892 10.4648 108.65 10.8944 109.751 11.9832C110.854 13.04 111.29 14.5584 111.123 16.572C110.663 22.0856 106.519 23.7688 102.283 23.7688ZM119.787 23.1088C119.291 23.1088 119.258 23.1088 119.299 22.6136L120.734 5.3816C120.757 5.1168 120.767 4.9848 120.437 4.9848H114.017C113.652 4.9848 113.59 4.952 113.619 4.5888L113.963 0.4624C113.994 0.0992 114.002 0 114.399 0H133.593C133.957 0 134.023 0 133.993 0.3632L133.638 4.6224C133.608 4.9848 133.608 4.9848 133.244 4.9848H126.725C126.46 4.9848 126.421 5.0512 126.396 5.348L124.964 22.548C124.934 22.9112 124.784 23.1088 124.487 23.1088H119.787Z" fill="black"/>
</svg>
