<svg width="45" height="45" viewBox="0 0 45 45" fill="none" xmlns="http://www.w3.org/2000/svg">
<path fill-rule="evenodd" clip-rule="evenodd" d="M7.3331 3.69061L19.3048 7.77294L26.6098 10.3049C26.6098 10.3049 24.9912 8.19651 21.9647 6.49515L30.6195 0L7.3331 3.69061ZM35.8248 16.6904L45 23.215L34.005 1.47483L33.8449 14.1076L33.7323 22.0375C33.7323 22.0375 35.1385 19.9527 35.8248 16.6904ZM30.9598 30.5768L43.8508 26.5469L26.4156 44.0532L29.7782 33.1742C26.1709 33.6804 23.4659 32.8863 23.4659 32.8863L30.9598 30.5768ZM4.26845 23.5229L4.26904 23.5224L12.434 12.5331C12.434 12.5331 9.76006 13.5077 7.13481 16.0845L3.69999 5.89932L0 29.2742L4.26845 23.5229ZM15.088 33.7624L15.1132 33.7618L23.0165 45L1.46662 33.937L12.5895 33.7942C11.1422 30.6576 11.053 28.0218 11.053 28.0218L15.088 33.7624Z" fill="black"/>
</svg>
